<svg width="18" height="20" viewBox="0 0 18 20" fill="none" xmlns="http://www.w3.org/2000/svg">
<path d="M8.99996 11C11.1217 11 13.1565 11.8429 14.6568 13.3431C15.2008 13.8871 15.6583 14.5013 16.0206 15.1645C17.0797 17.1032 15.2091 19 13 19H4.99996C2.79082 19 0.920246 17.1032 1.97933 15.1645C2.3416 14.5013 2.79914 13.8871 3.34311 13.3431C4.8434 11.8429 6.87823 11 8.99996 11ZM8.99996 11C11.7614 11 14 8.76142 14 6C14 3.23858 11.7614 1 8.99996 1C6.23854 1 3.99996 3.23858 3.99996 6C3.99996 8.76142 6.23854 11 8.99996 11Z" stroke="black" stroke-width="1.5"/>
</svg>
