<svg width="68" height="63" viewBox="0 0 68 63" fill="none" xmlns="http://www.w3.org/2000/svg">
<path d="M0 2H65V70H0V2Z" fill="black"/>
<path d="M0 35.4487V70H33.6875H67.375V35.4487V0.897475H33.6875H0V35.4487ZM35.6511 11.9058C37.3561 12.3625 38.3556 12.9033 39.2609 13.8527C40.5073 15.1506 41.154 16.6529 41.154 18.2632C41.154 19.0684 40.9894 20.823 40.8601 21.4119C40.813 21.6282 40.8483 21.6883 41.0482 21.6883C41.448 21.6883 41.9418 22.3012 42.0359 22.9141C42.224 24.164 41.2246 26.5315 40.3662 26.868C40.2016 26.9281 40.0958 27.0723 40.0958 27.2165C40.0958 27.6972 39.6019 28.9591 39.1316 29.7042C38.5437 30.6416 38.0851 31.0262 36.0274 32.24C34.4518 33.1774 34.3342 33.2254 33.6522 33.2254C32.9703 33.2254 32.8644 33.1774 31.1595 32.1799C30.0307 31.5189 29.1606 30.906 28.7843 30.5214C28.1376 29.8604 27.338 28.3222 27.2087 27.4809C27.1499 27.1084 27.0558 26.9281 26.8795 26.856C26.4914 26.7118 26.1504 26.2671 25.7624 25.4138C25.0804 23.9236 25.0452 22.5296 25.6919 21.9647C25.8565 21.8085 26.0799 21.6883 26.1622 21.6883C26.3151 21.6883 26.3268 21.3638 26.268 19.5491C26.1269 15.427 26.5502 14.2132 28.4668 13.3479C28.8196 13.1917 29.1841 12.9634 29.2781 12.8552C29.5721 12.4947 30.2776 12.0981 30.9949 11.8818C32.5822 11.4131 33.8521 11.4131 35.6511 11.9058ZM30.3717 36.8909C30.7244 37.8763 31.4534 39.8833 31.9826 41.3375C32.4999 42.7916 33.0878 44.378 33.276 44.8467C33.4641 45.3274 33.5582 45.724 33.4994 45.724C33.4288 45.724 32.5234 45.2313 31.4769 44.6304C30.4305 44.0175 28.9959 43.1882 28.2787 42.7796C27.5732 42.371 26.7031 41.8783 26.3739 41.686C26.0329 41.4937 25.7507 41.2894 25.7507 41.2293C25.7507 41.1692 26.3386 40.5443 27.0558 39.8473C27.7848 39.1502 28.3022 38.5614 28.2317 38.5373C28.1141 38.5013 26.1387 38.8858 25.4802 39.0781C25.2215 39.1502 25.2215 39.1382 25.8682 37.3115C26.4562 35.6771 27.1146 34.0667 27.7966 32.5645L28.3492 31.3627L29.0312 33.2254C29.4075 34.247 30.0072 35.8934 30.3717 36.8909ZM39.6372 33.1774C40.813 35.7131 42.0359 38.9459 41.8713 39.0421C41.8242 39.0781 41.1305 38.9459 40.3309 38.7536C39.5196 38.5734 38.8494 38.4292 38.8259 38.4532C38.8141 38.4652 39.402 39.0781 40.1546 39.8232C40.8953 40.5563 41.5068 41.1933 41.5068 41.2533C41.5068 41.3014 40.7778 41.7461 39.8841 42.2508C39.0023 42.7676 37.6971 43.5127 36.9798 43.9213C34.3225 45.4596 33.8286 45.724 33.7698 45.6759C33.6993 45.5918 34.005 44.7385 36.3331 38.4532C37.3443 35.7251 38.0146 33.8984 38.7083 31.9876C38.7671 31.8073 38.8494 31.6631 38.8847 31.6631C38.9082 31.6631 39.2492 32.3361 39.6372 33.1774Z" fill="white"/>
<path d="M13.2869 55.1816C13.2869 55.7344 13.4515 55.9387 13.9101 55.9387C14.2275 55.9387 14.2393 55.9267 14.204 55.3619C14.1687 54.797 14.1687 54.797 13.7337 54.761C13.2869 54.7249 13.2869 54.7249 13.2869 55.1816Z" fill="white"/>
<path d="M13.0518 58.2466C13.0518 58.6552 13.334 58.8355 13.9336 58.7995C14.9096 58.7394 14.745 58.2466 13.722 58.1385C13.1811 58.0784 13.0518 58.1024 13.0518 58.2466Z" fill="white"/>
<path d="M24.9628 56.5039C24.6453 56.564 24.5983 56.9125 24.8687 57.1409C24.9981 57.249 25.1627 57.261 25.4331 57.1889C25.7271 57.0928 25.8094 57.0087 25.8094 56.7803C25.8094 56.4679 25.5507 56.3837 24.9628 56.5039Z" fill="white"/>
<path d="M38.7553 55.0494C38.6142 55.434 38.673 55.7224 38.8964 55.6503C39.0022 55.6142 39.2374 55.5541 39.4255 55.5061C39.7665 55.4219 39.837 55.2417 39.6019 55.0013C39.402 54.797 38.8376 54.8211 38.7553 55.0494Z" fill="white"/>
<path d="M42.7297 55.0494C42.6121 55.5421 42.8473 55.9387 43.2706 55.9387C43.5527 55.9387 43.6351 55.8786 43.6938 55.6263C43.8114 55.1335 43.5763 54.7369 43.153 54.7369C42.8708 54.7369 42.7885 54.797 42.7297 55.0494Z" fill="white"/>
<path d="M42.4474 58.2699C42.4474 58.6185 42.8001 58.8228 43.3998 58.8228C43.9407 58.8228 43.9877 58.7987 43.9524 58.5584C43.9172 58.2699 43.5997 58.1377 42.8942 58.1137C42.5767 58.1017 42.4474 58.1498 42.4474 58.2699Z" fill="white"/>
<path d="M47.186 56.5402C46.8686 56.6724 46.845 56.8166 47.1037 57.0689C47.3154 57.2973 47.3859 57.2973 47.7857 57.1411C48.0091 57.0569 48.0914 56.9367 48.0914 56.7204C48.0914 56.4681 48.0326 56.42 47.774 56.432C47.5858 56.432 47.3271 56.4801 47.186 56.5402Z" fill="white"/>
<path d="M59.9673 55.0858C59.838 55.3502 59.8145 55.6987 59.9203 55.6987C60.1907 55.6987 60.908 55.3983 60.908 55.2781C60.908 54.8575 60.179 54.7013 59.9673 55.0858Z" fill="white"/>
</svg>
