<svg width="30" height="30" viewBox="0 0 30 30" fill="none" xmlns="http://www.w3.org/2000/svg">
<circle cx="15" cy="15" r="15" fill="#E60023"/>
<path d="M15.3127 9C12.6405 9 10 10.7815 10 13.6647C10 15.4983 11.0313 16.5401 11.6563 16.5401C11.9142 16.5401 12.0626 15.8213 12.0626 15.6183C12.0626 15.3762 11.4455 14.8603 11.4455 13.8523C11.4455 11.7583 13.0393 10.2735 15.1019 10.2735C16.8753 10.2735 18.1878 11.2815 18.1878 13.1334C18.1878 14.5165 17.6332 17.1106 15.8361 17.1106C15.1877 17.1106 14.6327 16.6418 14.6327 15.97C14.6327 14.9853 15.3202 14.0323 15.3202 13.0163C15.3202 11.2924 12.8747 11.6049 12.8747 13.6885C12.8747 14.126 12.9293 14.6103 13.1247 15.0091C12.7651 16.5564 12.0309 18.8612 12.0309 20.4552C12.0309 20.9473 12.1013 21.432 12.148 21.9241C12.2363 22.0233 12.1922 22.0129 12.3276 21.9633C13.6402 20.166 13.5935 19.8147 14.1873 17.4627C14.5077 18.0724 15.3356 18.4003 15.9919 18.4003C18.7574 18.4003 20 15.7046 20 13.2747C20 10.6885 17.7653 9.00083 15.3123 9.00083L15.3127 9Z" fill="white"/>
</svg>
