<svg width="15" height="15" viewBox="0 0 15 15" fill="none" xmlns="http://www.w3.org/2000/svg">
<g id="checkbox-checked-outline">
<path id="union-1" fill-rule="evenodd" clip-rule="evenodd" d="M1.25 4.375C1.25 2.64911 2.64911 1.25 4.375 1.25H10.625C12.3509 1.25 13.75 2.64911 13.75 4.375V10.625C13.75 12.3509 12.3509 13.75 10.625 13.75H4.375C2.64911 13.75 1.25 12.3509 1.25 10.625V4.375ZM4.375 2.5C3.33947 2.5 2.5 3.33947 2.5 4.375V10.625C2.5 11.6605 3.33947 12.5 4.375 12.5H10.625C11.6605 12.5 12.5 11.6605 12.5 10.625V4.375C12.5 3.33947 11.6605 2.5 10.625 2.5H4.375Z" fill="black"/>
<path id="union-2" fill-rule="evenodd" clip-rule="evenodd" d="M10.4419 5.49556C10.686 5.73964 10.686 6.13536 10.4419 6.37944L7.31694 9.50444C7.07286 9.74852 6.67714 9.74852 6.43306 9.50444L4.87056 7.94194C4.62648 7.69786 4.62648 7.30214 4.87056 7.05806C5.11464 6.81398 5.51036 6.81398 5.75444 7.05806L6.875 8.17862L9.55806 5.49556C9.80214 5.25148 10.1979 5.25148 10.4419 5.49556Z" fill="black"/>
</g>
</svg>
