<svg width="20" height="16" viewBox="0 0 20 16" fill="none" xmlns="http://www.w3.org/2000/svg">
<path fill-rule="evenodd" clip-rule="evenodd" d="M7.9364 3.27531C6.73089 2.0698 4.77636 2.0698 3.57084 3.27531C2.36533 4.48082 2.36533 6.43535 3.57084 7.64087L9.24697 13.317C9.66287 13.7329 10.3372 13.7329 10.7531 13.317L16.4292 7.64089C17.6348 6.43538 17.6348 4.48086 16.4292 3.27534C15.2237 2.06983 13.2692 2.06983 12.0637 3.27534L10.6482 4.69079C10.2903 5.04877 9.70986 5.04877 9.35188 4.69079L7.9364 3.27531ZM2.27448 1.97895C4.19596 0.0574709 7.31129 0.0574738 9.23277 1.97895L10.0001 2.74625L10.7673 1.97898C12.6888 0.0575051 15.8041 0.0575055 17.7256 1.97898C19.6471 3.90046 19.6471 7.01578 17.7256 8.93726L12.0495 14.6134C10.9176 15.7453 9.08247 15.7453 7.9506 14.6134L2.27447 8.93723C0.353007 7.01575 0.353006 3.90042 2.27448 1.97895Z" fill="black"/>
</svg>
