<svg width="22" height="22" viewBox="0 0 22 22" fill="none" xmlns="http://www.w3.org/2000/svg">
<path fill-rule="evenodd" clip-rule="evenodd" d="M2.75 5.49992C2.75 4.99366 3.16041 4.58325 3.66667 4.58325H18.3333C18.8396 4.58325 19.25 4.99366 19.25 5.49992C19.25 6.00618 18.8396 6.41659 18.3333 6.41659H3.66667C3.16041 6.41659 2.75 6.00618 2.75 5.49992ZM2.75 9.16658C2.75 8.66032 3.16041 8.24992 3.66667 8.24992H18.3333C18.8396 8.24992 19.25 8.66032 19.25 9.16658C19.25 9.67285 18.8396 10.0833 18.3333 10.0833H3.66667C3.16041 10.0833 2.75 9.67285 2.75 9.16658ZM2.75 12.8333C2.75 12.327 3.16041 11.9166 3.66667 11.9166H18.3333C18.8396 11.9166 19.25 12.327 19.25 12.8333C19.25 13.3395 18.8396 13.7499 18.3333 13.7499H3.66667C3.16041 13.7499 2.75 13.3395 2.75 12.8333ZM2.75 16.4999C2.75 15.9937 3.16041 15.5833 3.66667 15.5833H18.3333C18.8396 15.5833 19.25 15.9937 19.25 16.4999C19.25 17.0062 18.8396 17.4166 18.3333 17.4166H3.66667C3.16041 17.4166 2.75 17.0062 2.75 16.4999Z" fill="black"/>
</svg>
