<svg width="35" height="35" viewBox="0 0 35 35" fill="none" xmlns="http://www.w3.org/2000/svg">
<rect width="35" height="35" rx="10" fill="white"/>
<path d="M28 19.5C28.8284 19.5 29.5 18.8284 29.5 18C29.5 17.1716 28.8284 16.5 28 16.5L28 19.5ZM6.93934 16.9393C6.35355 17.5251 6.35355 18.4749 6.93934 19.0607L16.4853 28.6066C17.0711 29.1924 18.0208 29.1924 18.6066 28.6066C19.1924 28.0208 19.1924 27.0711 18.6066 26.4853L10.1213 18L18.6066 9.51472C19.1924 8.92893 19.1924 7.97918 18.6066 7.3934C18.0208 6.80761 17.0711 6.80761 16.4853 7.3934L6.93934 16.9393ZM28 16.5L8 16.5L8 19.5L28 19.5L28 16.5Z" fill="black"/>
</svg>
