<svg width="51" height="51" viewBox="0 0 51 51" fill="none" xmlns="http://www.w3.org/2000/svg">
<g id="pin-location 4">
<g id="union-1">
<path fill-rule="evenodd" clip-rule="evenodd" d="M25.5 8.5C19.632 8.5 14.875 13.257 14.875 19.125C14.875 25.2044 17.7869 31.1492 20.8835 35.7131C22.4133 37.968 23.946 39.8239 25.0949 41.1142C25.2361 41.2729 25.3714 41.4228 25.5 41.5636C25.6286 41.4228 25.7639 41.2729 25.9051 41.1142C27.054 39.8239 28.5867 37.968 30.1166 35.7131C33.2131 31.1492 36.125 25.2044 36.125 19.125C36.125 13.257 31.368 8.5 25.5 8.5ZM25.5 44.625C24.0383 46.1674 24.0373 46.1665 24.0373 46.1665L24.0326 46.162L24.0223 46.1522L23.9881 46.1193C23.9593 46.0916 23.9188 46.0522 23.8673 46.0016C23.7643 45.9004 23.6173 45.754 23.4326 45.5651C23.0634 45.1874 22.5426 44.6388 21.9208 43.9404C20.679 42.5458 19.0242 40.5424 17.3665 38.0993C14.0881 33.2674 10.625 26.4623 10.625 19.125C10.625 10.9098 17.2848 4.25 25.5 4.25C33.7152 4.25 40.375 10.9098 40.375 19.125C40.375 26.4623 36.9119 33.2674 33.6334 38.0993C31.9758 40.5424 30.321 42.5458 29.0792 43.9404C28.4574 44.6388 27.9366 45.1874 27.5674 45.5651C27.3827 45.754 27.2357 45.9004 27.1327 46.0016C27.0812 46.0522 27.0407 46.0916 27.0119 46.1193L26.9777 46.1522L26.9674 46.162L26.964 46.1652C26.964 46.1652 26.9617 46.1674 25.5 44.625ZM25.5 44.625L26.9617 46.1674C26.1421 46.9442 24.857 46.9433 24.0373 46.1665L25.5 44.625Z" fill="black"/>
<path d="M14.875 19.125C14.875 13.257 19.632 8.5 25.5 8.5C31.368 8.5 36.125 13.257 36.125 19.125C36.125 25.2044 33.2131 31.1492 30.1166 35.7131C28.5867 37.968 27.054 39.8239 25.9051 41.1142C25.7639 41.2729 25.6286 41.4228 25.5 41.5636C25.3714 41.4228 25.2361 41.2729 25.0949 41.1142C23.946 39.8239 22.4133 37.968 20.8835 35.7131C17.7869 31.1492 14.875 25.2044 14.875 19.125Z" fill="black"/>
</g>
<path id="Brand Ico (White)" d="M26.4543 14.7175C27.2646 14.9446 27.7397 15.2134 28.1701 15.6855C28.7625 16.3308 29.0699 17.0778 29.0699 17.8785C29.0699 18.2788 28.9916 19.1512 28.9301 19.444C28.9078 19.5516 28.9246 19.5815 29.0196 19.5815C29.2096 19.5815 29.4443 19.8862 29.489 20.1909C29.5785 20.8124 29.1034 21.9895 28.6954 22.1568C28.6172 22.1867 28.5669 22.2584 28.5669 22.3301C28.5669 22.5691 28.3321 23.1966 28.1086 23.567C27.8291 24.0331 27.6112 24.2243 26.6331 24.8278C25.8842 25.2939 25.8283 25.3178 25.5041 25.3178C25.18 25.3178 25.1297 25.2939 24.3193 24.798C23.7828 24.4693 23.3692 24.1646 23.1903 23.9734C22.8829 23.6447 22.5029 22.8799 22.4414 22.4616C22.4135 22.2764 22.3688 22.1867 22.2849 22.1509C22.1005 22.0792 21.9384 21.8581 21.754 21.4338C21.4298 20.6929 21.413 19.9997 21.7204 19.7189C21.7987 19.6412 21.9049 19.5815 21.944 19.5815C22.0167 19.5815 22.0222 19.4201 21.9943 18.5178C21.9272 16.4683 22.1284 15.8648 23.0394 15.4345C23.2071 15.3569 23.3803 15.2433 23.4251 15.1895C23.5648 15.0103 23.9001 14.8131 24.241 14.7055C24.9955 14.4725 25.5992 14.4725 26.4543 14.7175ZM23.9448 27.1403C24.1125 27.6303 24.459 28.6282 24.7105 29.3512C24.9564 30.0742 25.2359 30.863 25.3253 31.096C25.4147 31.335 25.4594 31.5322 25.4315 31.5322C25.3979 31.5322 24.9676 31.2872 24.4702 30.9885C23.9728 30.6837 23.2909 30.2714 22.95 30.0683C22.6147 29.8651 22.2011 29.6201 22.0446 29.5245C21.8825 29.4289 21.7484 29.3273 21.7484 29.2974C21.7484 29.2676 22.0278 28.9568 22.3688 28.6103C22.7153 28.2637 22.9612 27.9709 22.9276 27.9589C22.8718 27.941 21.9328 28.1322 21.6198 28.2278C21.4969 28.2637 21.4969 28.2577 21.8043 27.3495C22.0837 26.5368 22.3967 25.7361 22.7209 24.9892L22.9835 24.3916L23.3077 25.3178C23.4865 25.8257 23.7716 26.6444 23.9448 27.1403ZM28.3489 25.2939C28.9078 26.5547 29.489 28.1621 29.4108 28.2099C29.3884 28.2278 29.0587 28.1621 28.6786 28.0665C28.293 27.9769 27.9744 27.9052 27.9633 27.9171C27.9577 27.9231 28.2371 28.2278 28.5948 28.5983C28.9469 28.9628 29.2375 29.2795 29.2375 29.3094C29.2375 29.3333 28.891 29.5544 28.4663 29.8053C28.0471 30.0623 27.4267 30.4328 27.0858 30.6359C25.8227 31.4008 25.588 31.5322 25.56 31.5083C25.5265 31.4665 25.6718 31.0422 26.7784 27.9171C27.2591 26.5607 27.5776 25.6524 27.9074 24.7024C27.9353 24.6127 27.9744 24.541 27.9912 24.541C28.0024 24.541 28.1645 24.8756 28.3489 25.2939Z" fill="white"/>
</g>
</svg>
