<svg width="30" height="30" viewBox="0 0 30 30" fill="none" xmlns="http://www.w3.org/2000/svg">
<circle cx="15" cy="15" r="15" fill="black"/>
<path d="M17.8934 12.8949C18.7689 13.5205 19.8415 13.8886 21 13.8886V11.6606C20.7807 11.6606 20.5621 11.6377 20.3476 11.5923V13.3461C19.1892 13.3461 18.1167 12.9781 17.241 12.3525V16.8994C17.241 19.1739 15.3961 21.0177 13.1206 21.0177C12.2715 21.0177 11.4823 20.7611 10.8267 20.3211C11.575 21.0858 12.6184 21.5601 13.7728 21.5601C16.0486 21.5601 17.8935 19.7164 17.8935 17.4417V12.8949H17.8934ZM18.6982 10.6471C18.2508 10.1585 17.9569 9.52712 17.8934 8.82904V8.54248H17.2751C17.4307 9.42971 17.9616 10.1877 18.6982 10.6471ZM12.266 18.5757C12.016 18.2481 11.8809 17.8473 11.8815 17.4352C11.8815 16.3949 12.7253 15.5514 13.7664 15.5514C13.9604 15.5513 14.1532 15.5811 14.3381 15.6397V13.3618C14.122 13.3323 13.904 13.3196 13.686 13.3243V15.0972C13.501 15.0386 13.308 15.0088 13.114 15.009C12.0729 15.009 11.2292 15.8524 11.2292 16.8928C11.2292 17.6285 11.6509 18.2654 12.266 18.5757Z" fill="#FF004F"/>
<path d="M17.241 12.3525C18.1168 12.978 19.1892 13.346 20.3476 13.346V11.5923C19.701 11.4546 19.1286 11.1169 18.6982 10.6471C17.9616 10.1877 17.4308 9.42966 17.2751 8.54248H15.6512V17.4416C15.6475 18.4791 14.8051 19.3191 13.7663 19.3191C13.1542 19.3191 12.6103 19.0275 12.2659 18.5756C11.6509 18.2654 11.2291 17.6285 11.2291 16.8929C11.2291 15.8526 12.0729 15.0091 13.1139 15.0091C13.3134 15.0091 13.5056 15.0401 13.686 15.0973V13.3243C11.4503 13.3705 9.6524 15.1962 9.6524 17.4417C9.6524 18.5626 10.1001 19.5787 10.8268 20.3212C11.4824 20.7611 12.2715 21.0178 13.1206 21.0178C15.3962 21.0178 17.2411 19.1739 17.2411 16.8994V12.3525L17.241 12.3525Z" fill="white"/>
<path d="M20.3476 11.5921V11.118C19.7645 11.1189 19.1929 10.9557 18.6982 10.6471C19.1361 11.1262 19.7127 11.4567 20.3476 11.5922V11.5921ZM17.2751 8.54236C17.2602 8.45759 17.2489 8.37225 17.2409 8.28655V8H14.9987V16.8992C14.9951 17.9366 14.1527 18.7766 13.1139 18.7766C12.8194 18.7771 12.5289 18.7082 12.2659 18.5757C12.6103 19.0274 13.1541 19.319 13.7662 19.319C14.805 19.319 15.6475 18.4791 15.6511 17.4416V8.54241H17.2751V8.54236ZM13.686 13.3242V12.8194C13.4987 12.7938 13.3098 12.781 13.1207 12.7811C10.8448 12.7811 9 14.6249 9 16.8992C9 18.3252 9.72504 19.5818 10.8268 20.321C10.1001 19.5786 9.65242 18.5624 9.65242 17.4415C9.65242 15.1962 11.4503 13.3704 13.686 13.3242Z" fill="#00F2EA"/>
</svg>
