<svg width="30" height="30" viewBox="0 0 30 30" fill="none" xmlns="http://www.w3.org/2000/svg">
<circle cx="15" cy="15" r="15" fill="#507299"/>
<path d="M22.3563 19.9993H20.6052C19.9427 19.9993 19.7431 19.4912 18.5554 18.3659C17.5175 17.4188 17.0791 17.301 16.8166 17.301C16.4535 17.301 16.3544 17.3955 16.3544 17.8687V19.3603C16.3544 19.7638 16.2162 20 15.1031 20C14.0231 19.9313 12.9759 19.6207 12.0476 19.0937C11.1193 18.5667 10.3365 17.8384 9.76372 16.9688C8.40365 15.366 7.45732 13.4849 7 11.4749C7 11.2263 7.0998 11.001 7.60034 11.001H9.3507C9.80057 11.001 9.96255 11.1907 10.1391 11.629C10.989 13.9973 12.4392 16.0573 13.028 16.0573C13.2537 16.0573 13.352 15.9628 13.352 15.43V12.9905C13.2775 11.8776 12.6533 11.7839 12.6533 11.3812C12.6612 11.2749 12.7126 11.1758 12.7964 11.1048C12.8803 11.0338 12.9901 10.9966 13.1024 11.001H15.8539C16.2301 11.001 16.3544 11.1783 16.3544 11.6043V14.8972C16.3544 15.2526 16.5156 15.3704 16.6293 15.3704C16.855 15.3704 17.0285 15.2526 17.4423 14.8615C18.3292 13.8373 19.0539 12.6962 19.5934 11.4742C19.6486 11.3275 19.753 11.2019 19.8906 11.1166C20.0282 11.0313 20.1916 10.9909 20.3557 11.0017H22.1068C22.6319 11.0017 22.7432 11.2503 22.6319 11.605C21.995 12.9559 21.2069 14.2382 20.2812 15.43C20.0924 15.7026 20.0171 15.8443 20.2812 16.1642C20.4547 16.4128 21.0689 16.8983 21.4811 17.3599C22.0815 17.9269 22.5797 18.5825 22.9566 19.3007C23.1071 19.763 22.8561 19.9993 22.3563 19.9993Z" fill="white"/>
</svg>
